<mxfile host="app.diagrams.net" modified="2021-07-31T08:08:04.737Z" agent="5.0 (Windows NT 10.0; Win64; x64) AppleWebKit/537.36 (KHTML, like Gecko) Chrome/89.0.4389.114 Safari/537.36" etag="rdivYfFEjKre5EObcXqd" version="14.9.3" type="github">
  <diagram id="8TH7uReoswffPimqbZuZ" name="Page-1">
    <mxGraphModel dx="1038" dy="492" grid="0" gridSize="10" guides="1" tooltips="1" connect="1" arrows="1" fold="1" page="1" pageScale="1" pageWidth="827" pageHeight="1169" math="0" shadow="0">
      <root>
        <mxCell id="0" />
        <mxCell id="1" parent="0" />
        <mxCell id="pIVM3B8b8TiOGifCgAn9-1" value="&lt;font style=&quot;vertical-align: inherit&quot;&gt;&lt;font style=&quot;vertical-align: inherit&quot;&gt;&lt;font style=&quot;vertical-align: inherit ; font-size: 15px&quot;&gt;&lt;font style=&quot;vertical-align: inherit ; font-size: 15px&quot;&gt;127.0.0.1:6379&lt;br&gt;master&lt;br&gt;&lt;/font&gt;&lt;/font&gt;&lt;/font&gt;&lt;/font&gt;" style="rounded=1;whiteSpace=wrap;html=1;" parent="1" vertex="1">
          <mxGeometry x="456" y="149.75" width="102" height="49" as="geometry" />
        </mxCell>
        <mxCell id="4EUAKiG6uaYQuzAemKZB-11" style="edgeStyle=orthogonalEdgeStyle;rounded=0;orthogonalLoop=1;jettySize=auto;html=1;exitX=0.5;exitY=0;exitDx=0;exitDy=0;strokeWidth=1;" edge="1" parent="1" source="pIVM3B8b8TiOGifCgAn9-2">
          <mxGeometry relative="1" as="geometry">
            <mxPoint x="506.99993896484375" y="202.20001220703125" as="targetPoint" />
          </mxGeometry>
        </mxCell>
        <mxCell id="pIVM3B8b8TiOGifCgAn9-2" value="&lt;font style=&quot;vertical-align: inherit&quot;&gt;&lt;font style=&quot;vertical-align: inherit&quot;&gt;&lt;font style=&quot;vertical-align: inherit&quot;&gt;&lt;font style=&quot;vertical-align: inherit&quot;&gt;&lt;font style=&quot;vertical-align: inherit&quot;&gt;127.0.0.4:6379&lt;/font&gt;&lt;/font&gt;&lt;/font&gt;&lt;/font&gt;&lt;/font&gt;&lt;br&gt;slave" style="rounded=1;whiteSpace=wrap;html=1;" parent="1" vertex="1">
          <mxGeometry x="593" y="314" width="102" height="49" as="geometry" />
        </mxCell>
        <mxCell id="4EUAKiG6uaYQuzAemKZB-9" style="edgeStyle=orthogonalEdgeStyle;rounded=0;orthogonalLoop=1;jettySize=auto;html=1;exitX=0.5;exitY=0;exitDx=0;exitDy=0;entryX=0.5;entryY=1;entryDx=0;entryDy=0;strokeWidth=1;" edge="1" parent="1" source="pIVM3B8b8TiOGifCgAn9-3" target="pIVM3B8b8TiOGifCgAn9-1">
          <mxGeometry relative="1" as="geometry" />
        </mxCell>
        <mxCell id="pIVM3B8b8TiOGifCgAn9-3" value="&lt;font style=&quot;vertical-align: inherit&quot;&gt;&lt;font style=&quot;vertical-align: inherit&quot;&gt;&lt;font style=&quot;vertical-align: inherit&quot;&gt;&lt;font style=&quot;vertical-align: inherit&quot;&gt;&lt;font style=&quot;vertical-align: inherit&quot;&gt;127.0.0.3:6379&lt;/font&gt;&lt;/font&gt;&lt;/font&gt;&lt;/font&gt;&lt;/font&gt;&lt;br&gt;slave" style="rounded=1;whiteSpace=wrap;html=1;" parent="1" vertex="1">
          <mxGeometry x="456" y="314" width="102" height="49" as="geometry" />
        </mxCell>
        <mxCell id="4EUAKiG6uaYQuzAemKZB-10" style="edgeStyle=orthogonalEdgeStyle;rounded=0;orthogonalLoop=1;jettySize=auto;html=1;exitX=0.5;exitY=0;exitDx=0;exitDy=0;strokeWidth=1;" edge="1" parent="1" source="pIVM3B8b8TiOGifCgAn9-4">
          <mxGeometry relative="1" as="geometry">
            <mxPoint x="506.99993896484375" y="201.4000244140625" as="targetPoint" />
          </mxGeometry>
        </mxCell>
        <mxCell id="pIVM3B8b8TiOGifCgAn9-4" value="&lt;font style=&quot;vertical-align: inherit&quot;&gt;&lt;font style=&quot;vertical-align: inherit&quot;&gt;&lt;font style=&quot;vertical-align: inherit&quot;&gt;&lt;font style=&quot;vertical-align: inherit&quot;&gt;&lt;font style=&quot;vertical-align: inherit&quot;&gt;&lt;font style=&quot;vertical-align: inherit&quot;&gt;&lt;font style=&quot;vertical-align: inherit&quot;&gt;&lt;font style=&quot;vertical-align: inherit&quot;&gt;127.0.0.2:6379&lt;/font&gt;&lt;/font&gt;&lt;/font&gt;&lt;/font&gt;&lt;/font&gt;&lt;/font&gt;&lt;br&gt;salve&lt;br&gt;&lt;/font&gt;&lt;/font&gt;" style="rounded=1;whiteSpace=wrap;html=1;" parent="1" vertex="1">
          <mxGeometry x="319" y="314" width="102" height="49" as="geometry" />
        </mxCell>
        <mxCell id="4EUAKiG6uaYQuzAemKZB-13" style="edgeStyle=orthogonalEdgeStyle;rounded=0;orthogonalLoop=1;jettySize=auto;html=1;exitX=1;exitY=0.5;exitDx=0;exitDy=0;entryX=0;entryY=0.5;entryDx=0;entryDy=0;strokeWidth=1;" edge="1" parent="1" source="pIVM3B8b8TiOGifCgAn9-9" target="pIVM3B8b8TiOGifCgAn9-1">
          <mxGeometry relative="1" as="geometry" />
        </mxCell>
        <mxCell id="pIVM3B8b8TiOGifCgAn9-9" value="&lt;font style=&quot;vertical-align: inherit&quot;&gt;&lt;font style=&quot;vertical-align: inherit&quot;&gt;Client&lt;/font&gt;&lt;/font&gt;" style="rounded=0;whiteSpace=wrap;html=1;" parent="1" vertex="1">
          <mxGeometry x="89" y="72" width="84" height="46.5" as="geometry" />
        </mxCell>
        <mxCell id="pIVM3B8b8TiOGifCgAn9-13" value="&lt;font style=&quot;vertical-align: inherit&quot;&gt;&lt;font style=&quot;vertical-align: inherit&quot;&gt;&lt;font style=&quot;vertical-align: inherit&quot;&gt;&lt;font style=&quot;vertical-align: inherit&quot;&gt;&lt;font style=&quot;vertical-align: inherit&quot;&gt;&lt;font style=&quot;vertical-align: inherit&quot;&gt;&lt;font style=&quot;vertical-align: inherit&quot;&gt;&lt;font style=&quot;vertical-align: inherit ; font-size: 15px&quot;&gt;set key value nx ex empireTime&lt;/font&gt;&lt;/font&gt;&lt;/font&gt;&lt;/font&gt;&lt;/font&gt;&lt;/font&gt;&lt;/font&gt;&lt;/font&gt;" style="text;html=1;strokeColor=none;fillColor=none;align=center;verticalAlign=middle;whiteSpace=wrap;rounded=0;" parent="1" vertex="1">
          <mxGeometry x="341" y="33" width="278" height="35" as="geometry" />
        </mxCell>
        <mxCell id="4EUAKiG6uaYQuzAemKZB-1" value="&lt;font style=&quot;vertical-align: inherit&quot;&gt;&lt;font style=&quot;vertical-align: inherit&quot;&gt;&lt;font style=&quot;vertical-align: inherit&quot;&gt;&lt;font style=&quot;vertical-align: inherit&quot;&gt;&lt;font style=&quot;vertical-align: inherit&quot;&gt;&lt;font style=&quot;vertical-align: inherit&quot;&gt;&lt;font style=&quot;vertical-align: inherit&quot;&gt;&lt;font style=&quot;vertical-align: inherit ; font-size: 15px&quot;&gt;set product 100 nx ex 10&lt;/font&gt;&lt;/font&gt;&lt;/font&gt;&lt;/font&gt;&lt;/font&gt;&lt;/font&gt;&lt;/font&gt;&lt;/font&gt;" style="text;html=1;strokeColor=none;fillColor=none;align=center;verticalAlign=middle;whiteSpace=wrap;rounded=0;" vertex="1" parent="1">
          <mxGeometry x="10" y="29" width="278" height="35" as="geometry" />
        </mxCell>
        <mxCell id="4EUAKiG6uaYQuzAemKZB-14" style="edgeStyle=orthogonalEdgeStyle;rounded=0;orthogonalLoop=1;jettySize=auto;html=1;exitX=1;exitY=0.5;exitDx=0;exitDy=0;entryX=0;entryY=0.5;entryDx=0;entryDy=0;strokeWidth=1;" edge="1" parent="1" source="4EUAKiG6uaYQuzAemKZB-2" target="pIVM3B8b8TiOGifCgAn9-1">
          <mxGeometry relative="1" as="geometry" />
        </mxCell>
        <mxCell id="4EUAKiG6uaYQuzAemKZB-2" value="&lt;font style=&quot;vertical-align: inherit&quot;&gt;&lt;font style=&quot;vertical-align: inherit&quot;&gt;Client&lt;/font&gt;&lt;/font&gt;" style="rounded=0;whiteSpace=wrap;html=1;" vertex="1" parent="1">
          <mxGeometry x="89" y="226" width="84" height="46.5" as="geometry" />
        </mxCell>
        <mxCell id="4EUAKiG6uaYQuzAemKZB-12" style="edgeStyle=orthogonalEdgeStyle;rounded=0;orthogonalLoop=1;jettySize=auto;html=1;exitX=1;exitY=0.5;exitDx=0;exitDy=0;entryX=0;entryY=0.5;entryDx=0;entryDy=0;strokeWidth=1;" edge="1" parent="1" source="4EUAKiG6uaYQuzAemKZB-3" target="pIVM3B8b8TiOGifCgAn9-1">
          <mxGeometry relative="1" as="geometry" />
        </mxCell>
        <mxCell id="4EUAKiG6uaYQuzAemKZB-3" value="&lt;font style=&quot;vertical-align: inherit&quot;&gt;&lt;font style=&quot;vertical-align: inherit&quot;&gt;Client&lt;/font&gt;&lt;/font&gt;" style="rounded=0;whiteSpace=wrap;html=1;" vertex="1" parent="1">
          <mxGeometry x="89" y="151" width="84" height="46.5" as="geometry" />
        </mxCell>
        <mxCell id="4EUAKiG6uaYQuzAemKZB-15" value="&lt;div&gt;&lt;span style=&quot;font-size: 15px&quot;&gt;假设此时&lt;/span&gt;&lt;font style=&quot;font-size: 15px&quot;&gt;有多个客户端请求redis.去获取分布式锁。但是请求master成功之后，在master复制分布式锁到slave的时候宕机。此时剩下的slave选举新的master之后。其他的客户端依然可以获取到分布式锁，此时就会存在多个客户端获取到分布式锁。&lt;/font&gt;&lt;br&gt;&lt;/div&gt;" style="text;html=1;strokeColor=#6c8ebf;fillColor=#dae8fc;align=left;verticalAlign=middle;whiteSpace=wrap;rounded=0;" vertex="1" parent="1">
          <mxGeometry x="83" y="414" width="348" height="96" as="geometry" />
        </mxCell>
      </root>
    </mxGraphModel>
  </diagram>
</mxfile>
